<svg width="389" height="48" viewBox="0 0 389 48" fill="none" xmlns="http://www.w3.org/2000/svg">
<path d="M36.4687 29.28H10.6002V22.944H43.957C43.0817 20.256 40.2615 17.76 35.3017 17.76H11.0865C5.54324 17.76 2.33399 19.776 2.33399 24.192V28.896C2.33399 32.736 5.64049 34.944 10.503 34.944H36.6632V41.664H1.45874C2.33399 45.312 5.15424 47.232 10.2112 47.232H36.566C42.1092 47.232 44.8322 45.12 44.8322 40.608V35.904C44.8322 31.776 41.623 29.568 36.4687 29.28Z" fill="#F8F9FA"/>
<path d="M89.2755 17.856H57.3775V47.328H66.4218V36H89.9563C96.472 36 100.07 33.792 100.07 28.608V25.344C99.973 20.544 95.8885 17.856 89.2755 17.856ZM92.193 27.264C92.193 29.376 91.804 30.528 88.303 30.528H66.4218L66.519 22.848H87.914C91.804 22.848 92.2903 24 92.2903 26.016V27.264H92.193Z" fill="#F8F9FA"/>
<path d="M126.328 16.608L120.882 23.232L130.12 35.808H110.865L106.1 40.8H133.913L138.678 47.328H149.376L126.328 16.608Z" fill="#F8F9FA"/>
<path d="M166.687 22.944H200.53C199.654 19.488 196.251 17.76 191.388 17.76H166.103C161.727 17.76 157.545 19.488 157.545 24.192V40.704C157.545 45.408 161.727 47.136 166.103 47.136H191.68C197.515 47.136 199.557 45.504 200.53 41.568H166.687V22.944Z" fill="#F8F9FA"/>
<path d="M222.022 41.76V32.736H240.208V27.744H212.88V47.328H253.239V41.76H222.022Z" fill="#F8F9FA"/>
<path d="M254.6 17.856H213.853V23.04H254.6V17.856Z" fill="#F8F9FA"/>
<path d="M279.691 17.856H265.492L282.22 29.952C284.651 28.32 287.471 26.592 290 25.152L279.691 17.856Z" fill="#F8F9FA"/>
<path d="M300.308 32.928C297.877 34.56 295.446 36.384 293.112 38.112L305.754 47.232H320.05L300.308 32.928Z" fill="#F8F9FA"/>
<path d="M388.028 0.671997C310.228 5.088 274.245 37.92 266.173 45.696L264.52 47.232H278.913C317.813 8.736 373.732 1.92 388.028 0.671997Z" fill="#F8F9FA"/>
</svg>
