<svg width="48" height="48" viewBox="0 0 48 48" fill="none" xmlns="http://www.w3.org/2000/svg">
<path fill-rule="evenodd" clip-rule="evenodd" d="M24 44C35.0457 44 44 35.0457 44 24C44 12.9543 35.0457 4 24 4C12.9543 4 4 12.9543 4 24C4 35.0457 12.9543 44 24 44ZM21.724 23.104V18.28C21.724 16.072 23.044 14.968 25.684 14.968H29.968V11.8H26.152C24.76 11.8 23.584 11.908 22.624 12.124C21.664 12.34 20.8 12.808 20.032 13.528C18.904 14.608 18.34 16.036 18.34 17.812V37H21.724V26.272H28.42V23.104H21.724Z" fill="white"/>
</svg>
