<svg width="48" height="48" viewBox="0 0 48 48" fill="none" xmlns="http://www.w3.org/2000/svg">
<path fill-rule="evenodd" clip-rule="evenodd" d="M24 44C35.0457 44 44 35.0457 44 24C44 12.9543 35.0457 4 24 4C12.9543 4 4 12.9543 4 24C4 35.0457 12.9543 44 24 44ZM22 24C22 27.3137 19.3137 30 16 30C12.6863 30 10 27.3137 10 24C10 20.6863 12.6863 18 16 18C19.3137 18 22 20.6863 22 24ZM38 24C38 27.3137 35.3137 30 32 30C28.6863 30 26 27.3137 26 24C26 20.6863 28.6863 18 32 18C35.3137 18 38 20.6863 38 24Z" fill="white"/>
</svg>
