<svg width="48" height="48" viewBox="0 0 48 48" fill="none" xmlns="http://www.w3.org/2000/svg">
<path d="M24 27C22.3431 27 21 25.6569 21 24C21 22.3431 22.3431 21 24 21C25.6569 21 27 22.3431 27 24C27 25.6569 25.6569 27 24 27Z" fill="white"/>
<path fill-rule="evenodd" clip-rule="evenodd" d="M14 16C14 14.8954 14.8954 14 16 14H32C33.1046 14 34 14.8954 34 16V32C34 33.1046 33.1046 34 32 34H16C14.8954 34 14 33.1046 14 32V16ZM18 24C18 20.6863 20.6863 18 24 18C27.3137 18 30 20.6863 30 24C30 27.3137 27.3137 30 24 30C20.6863 30 18 27.3137 18 24ZM29 17C29 15.8954 29.8954 15 31 15C32.1046 15 33 15.8954 33 17C33 18.1046 32.1046 19 31 19C29.8954 19 29 18.1046 29 17Z" fill="white"/>
<path fill-rule="evenodd" clip-rule="evenodd" d="M24 44C35.0457 44 44 35.0457 44 24C44 12.9543 35.0457 4 24 4C12.9543 4 4 12.9543 4 24C4 35.0457 12.9543 44 24 44ZM11 16C11 13.2386 13.2386 11 16 11H32C34.7614 11 37 13.2386 37 16V32C37 34.7614 34.7614 37 32 37H16C13.2386 37 11 34.7614 11 32V16Z" fill="white"/>
</svg>
