<svg width="48" height="48" viewBox="0 0 48 48" fill="none" xmlns="http://www.w3.org/2000/svg">
<path fill-rule="evenodd" clip-rule="evenodd" d="M24 44C35.0457 44 44 35.0457 44 24C44 12.9543 35.0457 4 24 4C12.9543 4 4 12.9543 4 24C4 35.0457 12.9543 44 24 44ZM14.4489 19.9091V33H18.0795V19.9091H14.4489ZM14.8835 17.6847C15.2699 18.0426 15.733 18.2216 16.2727 18.2216C16.8125 18.2216 17.2727 18.0426 17.6534 17.6847C18.0398 17.321 18.233 16.8864 18.233 16.3807C18.233 15.8807 18.0398 15.4517 17.6534 15.0938C17.2727 14.7301 16.8125 14.5483 16.2727 14.5483C15.733 14.5483 15.2699 14.7301 14.8835 15.0938C14.5028 15.4517 14.3125 15.8807 14.3125 16.3807C14.3125 16.8864 14.5028 17.321 14.8835 17.6847ZM24.6186 33V25.4318C24.6243 24.8693 24.7294 24.3892 24.9339 23.9915C25.1442 23.5881 25.4339 23.2812 25.8033 23.071C26.1783 22.8608 26.6101 22.7557 27.0987 22.7557C27.826 22.7557 28.397 22.983 28.8118 23.4375C29.2266 23.8864 29.4311 24.5114 29.4254 25.3125V33H33.0561V24.6648C33.0561 23.6477 32.8686 22.7727 32.4936 22.0398C32.1186 21.3011 31.593 20.733 30.9169 20.3352C30.2408 19.9375 29.4482 19.7386 28.5391 19.7386C27.5675 19.7386 26.7408 19.9631 26.0589 20.4119C25.3771 20.8551 24.8913 21.4574 24.6016 22.2188H24.4482V19.9091H20.9879V33H24.6186Z" fill="white"/>
</svg>
