<svg width="48" height="48" viewBox="0 0 48 48" fill="none" xmlns="http://www.w3.org/2000/svg">
<path fill-rule="evenodd" clip-rule="evenodd" d="M24 44C35.0457 44 44 35.0457 44 24C44 12.9543 35.0457 4 24 4C12.9543 4 4 12.9543 4 24C4 35.0457 12.9543 44 24 44ZM32.2904 18.0082C33.2456 17.8919 34.1542 17.6346 35 17.2537L34.998 17.2568C34.3648 18.2192 33.568 19.0592 32.6449 19.7375C32.654 19.9434 32.6591 20.1513 32.6591 20.3572C32.6591 26.6938 27.9134 34 19.2325 34C16.668 34.0029 14.157 33.2549 12 31.8456C12.3739 31.8903 12.75 31.9126 13.1264 31.9125C15.2514 31.9157 17.3158 31.1924 18.9873 29.859C18.0026 29.8406 17.0483 29.5099 16.2578 28.9129C15.4673 28.316 14.8803 27.4829 14.579 26.5301C15.2863 26.6671 16.0151 26.6389 16.7102 26.4478C15.6421 26.2284 14.6816 25.6404 13.9916 24.7833C13.3017 23.9263 12.9247 22.8531 12.9248 21.7458V21.684C13.5801 22.0541 14.3128 22.2599 15.0621 22.2841C14.416 21.8456 13.8864 21.2519 13.5203 20.5556C13.1542 19.8592 12.9629 19.0818 12.9633 18.2923C12.9633 17.4154 13.1963 16.5919 13.6015 15.8816C14.7865 17.363 16.2647 18.5747 17.9404 19.4379C19.616 20.3011 21.4515 20.7967 23.3278 20.8924C23.0903 19.8639 23.1936 18.7844 23.6217 17.8216C24.0498 16.8589 24.7787 16.0666 25.6953 15.568C26.6119 15.0693 27.6648 14.8921 28.6907 15.0638C29.7165 15.2356 30.6579 15.7467 31.3686 16.5178C32.4254 16.307 33.4389 15.9135 34.3649 15.3546C34.0133 16.4658 33.276 17.409 32.2904 18.0082Z" fill="white"/>
</svg>
