<svg width="48" height="48" viewBox="0 0 48 48" fill="none" xmlns="http://www.w3.org/2000/svg">
<path d="M6.38201 4.40869C5.83709 3.86377 4.95361 3.86377 4.40869 4.40869C3.86377 4.95361 3.86377 5.83709 4.40869 6.38201L22.0267 24L4.40869 41.618C3.86377 42.1629 3.86377 43.0464 4.40869 43.5913C4.95361 44.1362 5.83709 44.1362 6.38201 43.5913L24 25.9733L41.618 43.5913C42.1629 44.1362 43.0464 44.1362 43.5913 43.5913C44.1362 43.0464 44.1362 42.1629 43.5913 41.618L25.9733 24L43.5913 6.38201C44.1362 5.83709 44.1362 4.95361 43.5913 4.40869C43.0464 3.86377 42.1629 3.86377 41.618 4.40869L24 22.0267L6.38201 4.40869Z" fill="white"/>
</svg>
